<svg xmlns="http://www.w3.org/2000/svg" width="359" height="50" viewBox="0 0 359 50">
  <defs>
    <style>
      .cls-1 {
        fill-rule: evenodd;
      }
    </style>
  </defs>
  <path id="logo.svg" class="cls-1" d="M212.8,99.428c0.052-.184.1-0.37,0.158-0.553a3.394,3.394,0,0,1,3.429-2.461,0.374,0.374,0,0,1,.432.48,3.078,3.078,0,0,1-3.2,3.174c-0.224.006-.448,0-0.715,0a19.4,19.4,0,0,0,1.159,3.212,14.4,14.4,0,0,1,.614-1.486,3.537,3.537,0,0,1,3.033-2.074c0.349-.017.448,0.1,0.453,0.448a3.127,3.127,0,0,1-2.844,3.314c-0.347.043-.7,0.069-1.044,0.1a9.267,9.267,0,0,0,1.7,2.9c0.065-.347.1-0.679,0.19-1a2.877,2.877,0,0,1,2.98-2.2,0.289,0.289,0,0,1,.325.351,3.041,3.041,0,0,1-2.726,3.378c-0.1.015-.2,0.051-0.329,0.086a3.344,3.344,0,0,0,1.394,1.217,11.722,11.722,0,0,0,4.681,1.112,3.232,3.232,0,0,0,3.227-2.48,0.5,0.5,0,0,0-.252-0.688c-1.415-.86-2.808-1.756-4.226-2.612-0.388-.235-0.4-0.422-0.154-0.783,0.827-1.2.814-1.209,2.077-.456,0.829,0.5,1.661.985,2.593,1.538-0.086-.768-0.162-1.439-0.238-2.111-0.056-.493-0.1-0.988-0.174-1.479-0.048-.321.039-0.453,0.379-0.443,0.65,0.019,1.3.01,1.952,0a0.311,0.311,0,0,1,.393.31c0.058,2.312.53,4.638-.171,6.927-0.653,2.133-1.933,3.523-4.279,3.724a10.877,10.877,0,0,1-5.2-.83,28.222,28.222,0,0,1-8.752-5.537c-0.561-.536-1.094-1.105-1.61-1.685a0.364,0.364,0,0,0-.592-0.078c-1.468,1-2.536.014-3.105-1.191-0.114-.242.066-0.321,0.209-0.407a2.179,2.179,0,0,1,2.026-.169c-0.393-.65-0.724-1.185-1.041-1.728-0.116-.2-0.245-0.134-0.4-0.08a3.773,3.773,0,0,1-1.088.175,2.124,2.124,0,0,1-2.122-2.032c-0.048-.248.13-0.291,0.3-0.348a3.354,3.354,0,0,1,2.159.092c-0.291-.752-0.554-1.449-0.834-2.139a0.352,0.352,0,0,0-.377-0.121,3.939,3.939,0,0,1-1.332-.29,2.642,2.642,0,0,1-1.424-2.83c0.053-.235.175-0.209,0.343-0.188a3.936,3.936,0,0,1,1.989.96c-0.275-.895-0.081-1.91-0.933-2.632a2.6,2.6,0,0,1-.806-2.07,1.693,1.693,0,0,0-.207-0.807A8.315,8.315,0,0,1,200,84.256c1.4,0.283,2.775.754,4.246,3.162,0-1.015,0-1.965,0-2.914a0.327,0.327,0,0,0-.318-0.339c-2.864-.881-3.734-3.27-2.974-6.093,0.089-.333.244-0.322,0.5-0.231a4.684,4.684,0,0,1,3.054,2.724,1.443,1.443,0,0,0,.118.2c0.213-.794.413-1.559,0.624-2.322,0.042-.153.074-0.267-0.123-0.33-2.476-.787-2.949-3.2-2.4-5.3,0.332-1.263.1-1.35,1.46-.65a3.452,3.452,0,0,1,2,2.981c0.009,0.135.046,0.268,0.08,0.463,0.475-.878.91-1.7,1.365-2.515,0.147-.264-0.074-0.347-0.185-0.479a4.582,4.582,0,0,1-.38-5.665c0.248-.4.393-0.351,0.68-0.059a4.618,4.618,0,0,1,1.418,3.821c0.574-.69,1.124-1.353,1.677-2.013a0.247,0.247,0,0,0,0-.369c-1.327-1.637-1.086-3.343-.2-5.069a11.428,11.428,0,0,1,1.431-2.037c0.239-.29.386-0.31,0.621,0.009a4.543,4.543,0,0,1,.622,4.574c-0.032.083-.07,0.163-0.106,0.243a0.34,0.34,0,0,0-.028.252,11.62,11.62,0,0,1,1.055-.869,1.907,1.907,0,0,0,.718-1.165,4.331,4.331,0,0,1,2.829-2.8,9.2,9.2,0,0,1,3.846-.412,4.761,4.761,0,0,1-5.951,4.319,0.966,0.966,0,0,0-.914.214,22.368,22.368,0,0,0-1.977,1.784,4.815,4.815,0,0,1,4.726.9,0.455,0.455,0,0,1,.108.741,3.224,3.224,0,0,1-3.812,1.259,7.6,7.6,0,0,1-2.238-1.164c-0.174-.126-0.3-0.2-0.479.009a29.369,29.369,0,0,0-2.18,2.851,4.13,4.13,0,0,1,2.644-.5,6.433,6.433,0,0,1,2.171.921c0.32,0.2.278,0.368,0.089,0.632a3.4,3.4,0,0,1-4.536,1.058c-0.343-.176-0.658-0.408-0.985-0.615-0.112-.071-0.2-0.191-0.34,0a17.851,17.851,0,0,0-1.369,2.887,3.975,3.975,0,0,1,2.024-.9,5.006,5.006,0,0,1,2.878.7,0.351,0.351,0,0,1,.145.524,3.415,3.415,0,0,1-4.215,2.345,5.743,5.743,0,0,1-1.334-.484c-0.251-.134-0.374-0.1-0.444.183-0.163.671-.353,1.336-0.5,2.009a7.823,7.823,0,0,0-.189,1.5c0.067-.1.139-0.195,0.2-0.3a3.9,3.9,0,0,1,4.626-1.584,0.313,0.313,0,0,1,.186.427,3.82,3.82,0,0,1-4.085,3.479,1.8,1.8,0,0,0-1.1-.03,1.761,1.761,0,0,0-.077,1.126,24.99,24.99,0,0,0,.158,3.46c0.225-.376.374-0.645,0.541-0.9a5.869,5.869,0,0,1,3.348-2.6c0.444-.128.577,0,0.551,0.435a4.683,4.683,0,0,1-.787,2.608c-0.11.148-.17,0.249,0.051,0.362a5.98,5.98,0,0,1,2.581,2.546c0-.9,0-1.792-0.007-2.688a0.747,0.747,0,0,0-.152-0.33,3.43,3.43,0,0,1,.543-4.664,8.513,8.513,0,0,1,1.157-.924c0.207-.144.331-0.175,0.486,0.085,1.175,1.974,1.146,4.2-1.195,5.579a0.684,0.684,0,0,0-.4.669c0.01,0.548,0,1.1,0,1.641,0.193,0.036.174-.119,0.213-0.2a4.127,4.127,0,0,1,3.607-2.3,0.341,0.341,0,0,1,.442.408c-0.037,2.257-1.085,4.2-3.805,4.306-0.177.007-.377-0.023-0.348,0.256,0.08,0.79.165,1.579,0.264,2.529a8,8,0,0,1,.847-1.394,2.988,2.988,0,0,1,2.768-1.1,0.308,0.308,0,0,1,.326.405,3.274,3.274,0,0,1-3.369,3.336c-0.3,0-.371.071-0.307,0.351,0.169,0.742.327,1.486,0.49,2.229Zm-5.288-.8c0.235-.273.436-0.489,0.617-0.722s0.308-.171.439,0.036A2.047,2.047,0,0,1,208.9,100a1.284,1.284,0,0,0,.229,1.52c0.226,0.316.457,0.63,0.677,0.95a0.282,0.282,0,0,0,.43.123,3.084,3.084,0,0,1,2.912-.244c-0.2-.59-0.38-1.087-0.528-1.594a0.288,0.288,0,0,0-.412-0.242,2.4,2.4,0,0,1-3.076-1.751c-0.144-.392-0.026-0.49.341-0.508a4.937,4.937,0,0,1,2.589.5c-0.083-.428-0.182-0.805-0.222-1.188A0.574,0.574,0,0,0,211.2,97a2.924,2.924,0,0,1-2.649-2.171c-0.22-.648-0.2-0.686.482-0.633a3.375,3.375,0,0,1,2.42,1.176c-0.071-.71-0.129-1.273-0.184-1.837a0.335,0.335,0,0,0-.206-0.334,6.958,6.958,0,0,1-1.758-1.1c-0.058.176-.1,0.306-0.144,0.435a2.763,2.763,0,0,1-2.706,2.056c-0.07,0-.141,0-0.211,0-0.154,0-.236.066-0.187,0.229,0.037,0.126.057,0.339,0.257,0.2,0.359-.247.463,0.041,0.593,0.261a1.723,1.723,0,0,1,.257,1.524A2.139,2.139,0,0,0,207.511,98.627Zm1.313-7.124a4.307,4.307,0,0,1-.761-2.687,3.775,3.775,0,0,1-2.77.7c-0.276-.024-0.374.035-0.313,0.342,0.113,0.572.162,1.157,0.278,1.728a16.651,16.651,0,0,0,.577,2.368A4.254,4.254,0,0,1,208.824,91.5Zm12.352-30.075a42.32,42.32,0,0,0-5.808,3.5A4.375,4.375,0,0,0,221.176,61.427ZM203.254,72.15a16.046,16.046,0,0,0,2.088,5.478C206.484,75.17,205.679,73.009,203.254,72.15Zm14.072-3.423a20.738,20.738,0,0,0-5.793-.157C213.723,70.516,216.208,70.585,217.326,68.727ZM204.092,83.587a3.911,3.911,0,0,0-2.781-5.354A35.323,35.323,0,0,0,204.092,83.587ZM212.4,61.5c-0.419,2.158-.828,4.246-1.091,6.425C213.41,66.129,213.967,63.466,212.4,61.5ZM206.02,78.084a5.534,5.534,0,0,0,1.75.634,2.979,2.979,0,0,0,3.357-1.772c0.147-.32.094-0.407-0.25-0.359A21.1,21.1,0,0,0,206.02,78.084ZM204.933,83.6a20.506,20.506,0,0,0,4.691-2.858C207.453,79.913,205.387,81.155,204.933,83.6Zm10.572,4.888a20.506,20.506,0,0,0-3.76,4.014A3.5,3.5,0,0,0,215.505,88.485Zm-2.58-5.555a34.764,34.764,0,0,0-1.421,5.25C213.641,87.323,214.273,84.982,212.925,82.931Zm2.993,24.342a17.681,17.681,0,0,1-2.061-3.308,0.26,0.26,0,0,0-.335-0.169,4.621,4.621,0,0,1-2.563-.059A14.447,14.447,0,0,0,215.918,107.272Zm-3.746-45.486c-1.864,1.868-2.578,4.677-1.055,6.229C211.4,65.914,211.771,63.871,212.172,61.786ZM215.23,64.8a48.3,48.3,0,0,1,5.55-3.387C218.018,61.167,215.538,62.667,215.23,64.8ZM201.273,78.588a3.906,3.906,0,0,0,2.7,5.141A35.151,35.151,0,0,1,201.273,78.588Zm3.8,10.465a5.023,5.023,0,0,0,3.814-3.508A6,6,0,0,0,205.074,89.053Zm6.252-.935a49.853,49.853,0,0,1,1.349-5.072C210.593,84.175,209.945,86.63,211.326,88.119ZM208.347,73c1.755,1.521,3.9,1.594,5.047-.15C211.71,72.844,210.078,72.861,208.347,73Zm-2.425,4.919a22.985,22.985,0,0,1,5.128-1.547A3.469,3.469,0,0,0,205.922,77.922Zm1.591-10.736a35.6,35.6,0,0,0,.458,5.165A3.713,3.713,0,0,0,207.513,67.186Zm-2.478,25.72a3.788,3.788,0,0,1-.985,1.509,0.431,0.431,0,0,0-.1.6c0.151,0.319.273,0.652,0.432,0.967a8.12,8.12,0,0,0,.84,1.5,2.379,2.379,0,0,1,.429-1.84,0.406,0.406,0,0,0,.052-0.4C205.489,94.494,205.276,93.751,205.035,92.906Zm-1.866-20.24c-0.814,2.194.138,4.6,1.968,4.98A17.159,17.159,0,0,1,203.169,72.666Zm1.863,11.079c2.225,0.511,4.057-.633,4.387-2.536A29.719,29.719,0,0,1,205.032,83.745Zm6.652,8.53a24.487,24.487,0,0,1,3.529-3.816A3.7,3.7,0,0,0,211.684,92.275Zm3.853,1.331a18.814,18.814,0,0,0-3.243,2.9A2.83,2.83,0,0,0,215.537,93.605Zm0.9,3.1c-1.936.068-3.423,1.412-3.238,2.858A15.262,15.262,0,0,0,216.434,96.707Zm-4.5-28.394a28.808,28.808,0,0,1,5.243.213A4.094,4.094,0,0,0,211.93,68.313Zm-3.255,4.38h4.744A3.512,3.512,0,0,0,208.675,72.693Zm9.173,27.338a3.555,3.555,0,0,0-3.351,3.116A30.126,30.126,0,0,0,217.848,100.031ZM207.33,67.394a3.85,3.85,0,0,0,.44,4.914C207.511,70.653,207.441,69.045,207.33,67.394Zm-4.2,24.934a5.3,5.3,0,0,1,.913-1.791c0.074-.1.178-0.277,0.266-0.223,0.49,0.3.236-.158,0.236-0.25,0-.444-0.135-0.782-0.683-0.727a0.842,0.842,0,0,1-.411-0.078c-0.259-.118-0.3.034-0.405,0.23C202.541,90.455,202.936,91.383,203.126,92.329Zm11.6,10.873a2.789,2.789,0,0,0,3.105-2.838C216.848,101.389,215.79,102.265,214.725,103.2Zm4.458,0.492c-0.989,1.011-1.831,2-2.727,3.052A2.762,2.762,0,0,0,219.183,103.694ZM212.1,96.4a24.42,24.42,0,0,1,3.357-2.98A3.184,3.184,0,0,0,212.1,96.4Zm4.37,0.57a20.411,20.411,0,0,1-3.239,2.809C215.232,99.83,216.5,98.724,216.471,96.975Zm2.5,6.631a2.592,2.592,0,0,0-2.617,2.956ZM202.364,89.891c-0.242-1.436-.277-2.846-0.415-4.346C200.951,87.185,201.135,89.01,202.364,89.891Zm0.174,0.005c0.774-1.3.5-3.658-.4-4.286A40.388,40.388,0,0,0,202.538,89.9Zm3.022-.672a2.991,2.991,0,0,0,3.389-3.151A6,6,0,0,1,205.56,89.224Zm-0.332,9.59-2.944-1.428C202.6,98.923,203.688,99.449,205.228,98.814Zm5.625-6.089-2.432-3.581C208.166,90.5,209.527,92.242,210.853,92.725ZM203.285,94.4c-0.1-1.254-1.353-2.587-2.376-2.511A6.288,6.288,0,0,0,203.285,94.4Zm2.872-.124a2.51,2.51,0,0,0,2.81-2.267Zm3.3,4.434c0.508,1.475,1.829,2.082,2.894,1.374Zm1.5-6.135a3.909,3.909,0,0,0-2.287-3.383Zm-6.17,9.1c0.595,1.275,1.718,1.582,2.619.686l-2.124-.615A0.8,0.8,0,0,0,204.79,101.678ZM213.5,103.3a1.911,1.911,0,0,0-3.037-.474C211.482,102.949,212.484,103.074,213.5,103.3Zm-4.738-8.81,2.748,1.964C211.293,95.213,210.348,94.531,208.76,94.485Zm-1.787,5.729a2.242,2.242,0,0,0-.346-2.3c-0.2.174-.388,0.359-0.6,0.513a0.235,0.235,0,0,0-.049.391C206.308,99.273,206.631,99.732,206.973,100.214Zm-4.517-2.949,2.607,1.275A1.815,1.815,0,0,0,202.456,97.265Zm1.942-6.45c-0.145,1.119-.281,2.159-0.419,3.219A2.354,2.354,0,0,0,204.4,90.815Zm-3.7,1.145a2.287,2.287,0,0,0,2.323,2.52A8.06,8.06,0,0,1,200.694,91.96Zm10.9,4.768-2.7-1.927A2.649,2.649,0,0,0,211.592,96.728Zm-7.814-2.641a26.156,26.156,0,0,0,.392-3.2A2.62,2.62,0,0,0,203.778,94.088Zm2.679,1.282a1.813,1.813,0,0,0-.675,2.646A22.534,22.534,0,0,0,206.457,95.37Zm-1.682,6.042,2.662,0.78A1.805,1.805,0,0,0,204.775,101.412Zm7.527-1.55c-0.163-.949-1.337-1.493-2.586-1.253,0.091,0.055.142,0.093,0.2,0.12C210.69,99.1,211.466,99.465,212.3,99.862Zm-3.435-8a3.255,3.255,0,0,0-2.619,2.118Zm1.625,11.169a2.78,2.78,0,0,0,3.021.479A15.222,15.222,0,0,0,210.492,103.028Zm-2.315-4.623c-0.917.763-1.093,1.894-.388,2.495C207.918,100.068,208.043,99.262,208.177,98.406Zm-2.2-.341c1.024-.8,1.282-1.9.654-2.524C206.416,96.351,206.2,97.168,205.972,98.065Zm1.992,2.806a1.76,1.76,0,0,0,.4-2.555C208.232,99.158,208.105,99.974,207.964,100.871Zm-6.9-14.061c0.452-1.13.292-1.546-.676-1.964a7.368,7.368,0,0,0,.4,1.366C200.853,86.389,200.946,86.555,201.066,86.81Zm3.154,1.8a3.466,3.466,0,0,0-1.195-2.292A4.079,4.079,0,0,0,204.22,88.612Zm-0.039.455a4.326,4.326,0,0,0-.807-1.268C203.131,88.993,203.157,89.036,204.181,89.068Zm4.519,13.169a2.8,2.8,0,0,0-.366-0.929c-0.059-.11-0.12-0.223-0.27-0.089a0.183,0.183,0,0,0-.006.308C208.248,101.729,208.43,101.937,208.7,102.237Zm-7.87-17.494-0.045.08c0.19,0.177.373,0.362,0.573,0.527,0.078,0.065.16,0.288,0.3,0.042,0.106-.184-0.009-0.254-0.14-0.319C201.292,84.96,201.06,84.853,200.83,84.743Zm22.8-8.771c-0.375.8,0.236,1.268,0.767,1.793q2.055,2.031,4.077,4.095c0.239,0.243.373,0.32,0.655,0.03,1.563-1.611,3.149-3.2,4.733-4.79a0.607,0.607,0,0,0,.192-0.6,3.444,3.444,0,1,1,2.995,2.829,0.978,0.978,0,0,0-.972.311q-2.251,2.322-4.551,4.6c-0.282.28-.285,0.427,0,0.709,2.151,2.148,4.277,4.322,6.432,6.466,0.369,0.367.373,0.6-.007,0.94a20.768,20.768,0,0,0-1.492,1.506c-0.311.346-.521,0.34-0.849,0-2.126-2.173-4.278-4.32-6.4-6.495-0.3-.311-0.46-0.33-0.774-0.007-2.124,2.176-4.276,4.323-6.4,6.495-0.317.323-.528,0.371-0.85,0.013-0.5-.552-1.021-1.08-1.567-1.581-0.339-.312-0.292-0.516.012-0.82,2.149-2.15,4.276-4.323,6.431-6.467,0.327-.325.338-0.486,0-0.816-1.549-1.524-3.072-3.076-4.592-4.631a0.763,0.763,0,0,0-.742-0.246,3.423,3.423,0,0,1-3.9-2.688,3.483,3.483,0,0,1,2.615-4.125,3.438,3.438,0,0,1,4.083,2.492A5.734,5.734,0,0,1,223.626,75.972Zm28.9,4.924a0.962,0.962,0,0,0,.255-0.529,5.7,5.7,0,0,1,3.914-3.2c0.287-.092.322,0.107,0.364,0.309a4.113,4.113,0,0,1-2.326,4.891,5.714,5.714,0,0,1-1.545.519,0.383,0.383,0,0,0-.374.5c0.056,0.686.087,1.375,0.134,2.164a6.884,6.884,0,0,1,1.446-1.213,0.917,0.917,0,0,0,.226-0.577c0.162-.412.336-0.818,0.5-1.229,0.089-.226.209-0.259,0.383-0.087a5.093,5.093,0,0,1,.709.709,2.309,2.309,0,0,0,1.446,1.19c0.274,0.054.268,0.269,0.1,0.433-0.871.836-.923,2.189-1.856,2.984a0.356,0.356,0,0,0-.09.295,14.831,14.831,0,0,1-.339,3.341,2.946,2.946,0,0,1,2.209-1.178c0.2-.005.369-0.024,0.315,0.255a3.3,3.3,0,0,1-1.331,2.324,1.937,1.937,0,0,1-1.322.247,0.314,0.314,0,0,0-.405.222c-0.194.566-.411,1.125-0.653,1.777a2.8,2.8,0,0,1,1.661-.328c0.339,0.038.433,0.153,0.271,0.48a2.292,2.292,0,0,1-2.226,1.413,0.724,0.724,0,0,0-.77.472c-0.229.476-.525,0.918-0.83,1.439a3.791,3.791,0,0,1,2.3-.038,2.807,2.807,0,0,1-3.084,1.632,0.5,0.5,0,0,0-.569.333,42.193,42.193,0,0,1-8.459,8.349,10.816,10.816,0,0,1-4.182,2.069c-2.358.484-4.159-.279-5.13-2.534a10.814,10.814,0,0,1-.807-3.616,23.992,23.992,0,0,1,.063-4.2,0.405,0.405,0,0,1,.473-0.465c0.633,0.022,1.267.019,1.9,0,0.333-.009.424,0.118,0.393,0.443-0.085.883-.127,1.77-0.219,2.652-0.048.46,0.1,0.427,0.422,0.258,1.1-.586,2.221-1.146,3.321-1.74,0.37-.2.559-0.2,0.726,0.256,0.525,1.454.543,1.446-.771,2.2-1.085.621-2.155,1.271-3.259,1.856a0.692,0.692,0,0,0-.393.851c0.293,1.909,1.416,2.713,3.34,2.362a10.082,10.082,0,0,0,4.577-2.408,2.251,2.251,0,0,0,.389-0.627,0.3,0.3,0,0,0-.139-0.5,3.856,3.856,0,0,1-.65-0.452,3.381,3.381,0,0,1-1.093-3.741c0.115-.376.281-0.378,0.569-0.216a3.546,3.546,0,0,1,1.853,2.516c0.048,0.243.079,0.489,0.133,0.832a24.443,24.443,0,0,0,1.006-2.655c0.077-.228-0.109-0.269-0.25-0.326-1.664-.67-2.646-2.437-2.009-4.828a4.821,4.821,0,0,1,2.893,2.888,28.816,28.816,0,0,0,.718-3.64c0.037-.244-0.114-0.253-0.285-0.259-2.277-.081-2.78-1.823-2.64-3.718,0.026-.359.241-0.34,0.478-0.282a3.629,3.629,0,0,1,2.273,1.519c0.086,0.13.168,0.262,0.3,0.474a8.328,8.328,0,0,0-.017-2.441c-0.02-.227-0.32-0.155-0.5-0.189a3.436,3.436,0,0,1-2.906-2.519c-0.029-.1-0.051-0.206-0.071-0.31-0.2-1.049-.074-1.179.993-1.011a3.29,3.29,0,0,1,2.166,1.441c-0.129-.5-0.261-0.992-0.384-1.489a0.464,0.464,0,0,0-.242-0.323c-1.515-.837-1.713-2.338-1.325-3.829,0.276-1.058.463-1.117,1.376-.475a2.448,2.448,0,0,1,.969,3,4.838,4.838,0,0,0,.14,3.313,2.673,2.673,0,0,1,2.362-1.576,8.067,8.067,0,0,1-.751-1.613c-0.1-.319-0.1-0.491.326-0.532a3.37,3.37,0,0,1,3.625,1.744,16.227,16.227,0,0,0,0-2.317,2.5,2.5,0,0,0-.162-1.286c-0.262-.3-0.79.088-1.21,0.128a3.96,3.96,0,0,1-4.2-2.383,8.814,8.814,0,0,1-.608-1.7c-0.053-.2-0.074-0.395.233-0.4a6.923,6.923,0,0,1,4.457,1.156,5.126,5.126,0,0,1,1.053,1.119,22.25,22.25,0,0,0-1.745-5.726,3.541,3.541,0,0,1-2.671.972,5.14,5.14,0,0,1-2.728-1.163,13.505,13.505,0,0,1-1.36-1.258c-0.195-.194-0.174-0.314.081-0.418,1.947-.8,3.88-1.175,5.768.188,0.112-.1-0.018-0.187-0.055-0.254a33.864,33.864,0,0,0-2.311-3.623c-0.17-.235-0.258-0.273-0.5-0.057a4.1,4.1,0,0,1-6-.213c-0.265-.256-0.248-0.394.045-0.588a4.923,4.923,0,0,1,5.084-.607c0.058,0.027.121,0.041,0.286,0.095a32.236,32.236,0,0,0-2.786-3.043,0.718,0.718,0,0,0-.549-0.124,10.256,10.256,0,0,1-3.8-.765,3.855,3.855,0,0,1-2.437-2.608c-0.084-.327-0.035-0.473.32-0.549a7.738,7.738,0,0,1,3.343-.086,4.028,4.028,0,0,1,3.19,3.113,2.457,2.457,0,0,0,.784,1.323c0.737,0.629,1.442,1.3,2.011,1.81a5.639,5.639,0,0,1-.056-2.993,5.757,5.757,0,0,1,.776-1.619c0.221-.334.368-0.371,0.663-0.056a4.072,4.072,0,0,1,.05,5.99,0.484,0.484,0,0,0-.033.775,35.077,35.077,0,0,1,2.061,3.027,0.386,0.386,0,0,0,.259.277,5.188,5.188,0,0,1,.1-1.992A5.06,5.06,0,0,1,252.26,68c0.271-.159.369-0.018,0.485,0.181a4.156,4.156,0,0,1-.015,4.529,6.851,6.851,0,0,1-1.957,1.988c-0.172.122-.292,0.212-0.167,0.462a21.669,21.669,0,0,1,1.148,2.8A29.565,29.565,0,0,1,252.523,80.9Zm-3.161,9.287a3.078,3.078,0,0,1-2.118,1.11c-0.233.011-.2,0.187-0.186,0.355a16.984,16.984,0,0,1,.031,1.967,4.727,4.727,0,0,0-.021,1.322,3.07,3.07,0,0,1,2.852-1.371,5.1,5.1,0,0,1-.575-3.4,3,3,0,0,1,2.438,2.017,29.618,29.618,0,0,0,.475-2.976,0.277,0.277,0,0,0-.3-0.368,3.8,3.8,0,0,1-1.414-.389c-0.287-.15-0.563-0.323-0.915-0.526A5.2,5.2,0,0,1,249.362,90.184Zm-3.083,9.277a3.058,3.058,0,0,1,2.938-.794,0.3,0.3,0,0,0,.4-0.146,22.418,22.418,0,0,0,1.55-3.924,0.165,0.165,0,0,0-.2.105A3.141,3.141,0,0,1,247.2,96.05c-0.372-.119-0.328.149-0.351,0.328C246.72,97.36,246.525,98.328,246.279,99.46Zm5.612-16.621a20.7,20.7,0,0,0-5.253-3.234C247.063,82.284,249.707,83.912,251.891,82.839Zm0.986,2.992c0,1.007,0,1.89,0,2.773,0,0.162-.052.316,0.184,0.359a2.4,2.4,0,0,1,2.038,1.915c0.171-.888.189-1.648,0.268-2.4,0.083-.794-0.542-1.227-0.744-1.863a0.181,0.181,0,0,0-.129-0.076A4.766,4.766,0,0,1,252.877,85.831Zm-3.067-10.57A16.415,16.415,0,0,0,243.9,74.04C245.8,76.268,248.452,76.8,249.81,75.261ZM236.872,61.876a19.722,19.722,0,0,1,5.917,3.251C242.455,62.364,239.894,61.113,236.872,61.876Zm13.849,12.362c2.213-1.385,2.983-4.029,1.721-5.784A19.983,19.983,0,0,0,250.721,74.238Zm-14.132-12.26c0.465,1.837,3.94,3.632,5.7,2.993A18.592,18.592,0,0,0,236.589,61.978ZM256.68,77.653a44.985,44.985,0,0,0-3.39,4.775A3.869,3.869,0,0,0,256.68,77.653Zm-3.313,18.113a18.133,18.133,0,0,0,1.3-3.161c0.083-.25-0.13-0.252-0.26-0.3a2.42,2.42,0,0,1-1.406-1.5c-0.089-.243-0.159-0.494-0.244-0.762-0.175.945-.333,1.853-0.519,2.755-0.046.224-.056,0.341,0.194,0.442a1.483,1.483,0,0,1,.93,1.472C253.374,95.024,253.367,95.336,253.367,95.766Zm-5.32,5.343a2.974,2.974,0,0,1-2.038.348,0.286,0.286,0,0,0-.372.26c-0.123.406-.254,0.81-0.4,1.207-0.337.9-.685,1.8-1.067,2.8a35.052,35.052,0,0,0,2.46-2.623A14.468,14.468,0,0,0,248.047,101.109Zm4.093-32.542a4.27,4.27,0,0,0-1.669,5.9A26.918,26.918,0,0,1,252.14,68.567Zm-5.895.948h-5.462A3.623,3.623,0,0,0,246.245,69.515Zm6.668,13.151A60.11,60.11,0,0,1,256.4,77.7,4.45,4.45,0,0,0,252.913,82.666ZM250.247,98.6a27.08,27.08,0,0,1-3.166,5.089,0.514,0.514,0,0,0-.16.544,1.266,1.266,0,0,0,.249-0.129,29.755,29.755,0,0,0,3.629-4.134,0.19,0.19,0,0,0,.012-0.279A3.516,3.516,0,0,1,250.247,98.6Zm1.684-16.028c-0.233-1.932-2.934-3.611-5.058-3.134A31.136,31.136,0,0,1,251.931,82.568Zm-5.138-13.629a17.1,17.1,0,0,0,.107-5.564C245.726,64.64,245.718,67.069,246.793,68.939Zm0.305-5.464a20.061,20.061,0,0,1-.067,5.2A3.536,3.536,0,0,0,247.1,63.474Zm-3.2,28.779a2.829,2.829,0,0,0,.643,2.636,2.291,2.291,0,0,0,2.023.542Zm11.548-9.416a45.726,45.726,0,0,1,.318,4.583A2.846,2.846,0,0,0,255.442,82.837ZM249.639,75c-0.875-1.764-3.525-2.136-5.406-1.144A18.366,18.366,0,0,1,249.639,75Zm2.668,13.533a11.36,11.36,0,0,0-3.594-2.875A3.576,3.576,0,0,0,252.307,88.532Zm-5.175,2.432a2.275,2.275,0,0,0,2.15-3.133A9.12,9.12,0,0,0,247.132,90.963Zm-4.108,6.383c-0.468,1.769.653,3.783,2.166,4A30.578,30.578,0,0,0,243.024,97.346Zm8.621,1.428c0.307-.491.619-0.979,0.918-1.475a2.212,2.212,0,0,0,.4-0.795,1.571,1.571,0,0,0-.532-0.448,2.577,2.577,0,0,1-.6-1.56c-0.216.63-.394,1.146-0.571,1.662a0.426,0.426,0,0,0,.018.359A3.706,3.706,0,0,1,251.645,98.774Zm-5.732-29.5a3.941,3.941,0,0,0-4.885,0h4.885Zm-1.006,13.3a1.205,1.205,0,0,0,.022.211c0.344,1.239.691,2.478,1.044,3.739A2.5,2.5,0,0,0,244.907,82.575Zm1.421,8.276a16.28,16.28,0,0,0-2.983-3.1A3.114,3.114,0,0,0,246.328,90.851Zm0.786,4.813a2.667,2.667,0,0,0,3.611-1.285A6.343,6.343,0,0,0,247.114,95.664Zm-5.3,5.925a3.094,3.094,0,0,0,1.854,3.88A23,23,0,0,0,241.816,101.589Zm6.964-16.1a12.982,12.982,0,0,1,3.5,2.689C252.273,86.414,250.885,85.343,248.78,85.491Zm6.5-2.476c-0.815,1.175-.814,3.559.263,4.432A24.647,24.647,0,0,0,255.277,83.015ZM243.3,97.369c0.675,1.21,1.373,2.406,1.978,3.69C245.875,99.811,245.06,98.282,243.3,97.369Zm2.528-10.71c-0.372-1.338-.718-2.584-1.08-3.884A2.8,2.8,0,0,0,245.829,86.659Zm0.6,3.992c-0.3-2.1-1.641-3.432-2.92-3.013A19.985,19.985,0,0,1,246.427,90.65Zm4.792,3.514a8.763,8.763,0,0,0-1.641-3.436C249.43,92.478,249.95,93.566,251.219,94.165Zm-5.257,6.754a31.284,31.284,0,0,1,3.24-1.943C247.485,98.606,246.065,99.476,245.962,100.919Zm1.083-10.353a16.336,16.336,0,0,1,2-2.851A2.1,2.1,0,0,0,247.045,90.566Zm-1.12,10.6a2.832,2.832,0,0,0,3.168-1.922A25.2,25.2,0,0,0,245.925,101.169Zm0.567-6.1a2.915,2.915,0,0,0-2.452-2.921Zm4.888-1.315a2.361,2.361,0,0,0-1.54-3.12A20.151,20.151,0,0,1,251.38,93.755Zm1.645-4.434c-0.046,1.479.644,2.6,1.608,2.718A9.13,9.13,0,0,0,253.025,89.321Zm4.617,1.356a28.681,28.681,0,0,0-2.279,2.115A2.129,2.129,0,0,0,257.642,90.677ZM242,101.563a34.873,34.873,0,0,1,1.718,3.426A3.292,3.292,0,0,0,242,101.563Zm5.131-6.158a12.694,12.694,0,0,1,1.658-.838,11.058,11.058,0,0,1,1.69-.406C249.315,93.491,248.094,93.935,247.133,95.4Zm7.634-3.571a1.923,1.923,0,0,0-1.526-2.524A10.793,10.793,0,0,1,254.767,91.834Zm0.5,0.768,2.267-2.117A2.463,2.463,0,0,0,255.266,92.6ZM256,95.03a19.03,19.03,0,0,0-2.33,1.3A2.045,2.045,0,0,0,256,95.03ZM254.1,98.8l-2.336,1.019A2.093,2.093,0,0,0,254.1,98.8Zm-1.111-2.963a1.77,1.77,0,0,0-.586-2.343A16.568,16.568,0,0,0,252.984,95.837Zm1.1,2.775a1.983,1.983,0,0,0-2.38,1.034Zm-1.23-2.5-0.615-2.377A2.11,2.11,0,0,0,252.85,96.116Zm-1.761,2.944a2.062,2.062,0,0,0,0-2.224V99.06Zm-0.213.234V97.322A1.454,1.454,0,0,0,250.876,99.294Zm4.789-4.324a1.515,1.515,0,0,0-1.725.956Zm-2.391-9.222c0.317,0.159.5,0.261,0.685,0.34a0.485,0.485,0,0,0,.482.086,0.6,0.6,0,0,0-.007-0.5c-0.01-.215-0.114-0.27-0.306-0.207C253.887,85.55,253.645,85.628,253.274,85.749Zm1.106-1.062a1.947,1.947,0,0,0-.805.735C253.893,85.264,254.5,85.466,254.38,84.686Zm-8.349,7.7a0.294,0.294,0,0,1-.294-0.3,0.289,0.289,0,0,1,.312-0.331,0.3,0.3,0,0,1,.3.346A0.3,0.3,0,0,1,246.031,92.385ZM205.4,100.03a0.33,0.33,0,0,1-.291.331,0.293,0.293,0,0,1-.326-0.33,0.273,0.273,0,0,1,.3-0.294A0.313,0.313,0,0,1,205.4,100.03Zm8.612,1.4a0.306,0.306,0,0,1-.311-0.3,0.286,0.286,0,0,1,.32-0.33,0.271,0.271,0,0,1,.276.313A0.3,0.3,0,0,1,214.012,101.433ZM203.627,85a0.324,0.324,0,0,1-.315.321A0.3,0.3,0,0,1,203,84.977a0.288,0.288,0,0,1,.329-0.271A0.318,0.318,0,0,1,203.627,85Zm43.842-13.186a0.309,0.309,0,0,1,.324.32,0.272,0.272,0,0,1-.284.308,0.282,0.282,0,0,1-.311-0.333A0.308,0.308,0,0,1,247.469,71.815Zm-35.923-1.464a0.29,0.29,0,0,1-.313.281,0.287,0.287,0,0,1-.3-0.3,0.3,0.3,0,0,1,.34-0.317A0.3,0.3,0,0,1,211.546,70.351Zm-1.24,18.556a0.3,0.3,0,1,1-.041.6A0.267,0.267,0,0,1,210,89.192,0.283,0.283,0,0,1,210.306,88.907ZM245,65.284a0.308,0.308,0,1,1-.614-0.051A0.309,0.309,0,0,1,245,65.284ZM253.8,97.811a0.31,0.31,0,0,1-.269-0.332,0.3,0.3,0,1,1,.589.048A0.306,0.306,0,0,1,253.8,97.811Zm-47.568-17.7a0.306,0.306,0,0,1-.3-0.307,0.268,0.268,0,0,1,.266-0.317,0.28,0.28,0,0,1,.323.317A0.3,0.3,0,0,1,206.229,80.107Zm38.015,22.641a0.282,0.282,0,0,1-.289-0.308,0.276,0.276,0,0,1,.3-0.292,0.286,0.286,0,0,1,.312.336A0.282,0.282,0,0,1,244.244,102.748Zm-29.618-38.97a0.276,0.276,0,0,1-.251.332,0.281,0.281,0,0,1-.323-0.313,0.265,0.265,0,0,1,.277-0.3A0.267,0.267,0,0,1,214.626,63.778Zm-2.114,29.611a0.278,0.278,0,0,1-.273.323,0.3,0.3,0,0,1-.032-0.6A0.258,0.258,0,0,1,212.512,93.388Zm40.342-15.553a0.294,0.294,0,0,1,.321.271,0.278,0.278,0,0,1-.3.333,0.266,0.266,0,0,1-.294-0.287A0.292,0.292,0,0,1,252.854,77.835Zm4.2,10.86a0.274,0.274,0,0,1-.27.321,0.27,0.27,0,0,1-.3-0.286A0.287,0.287,0,1,1,257.054,88.7Zm-9.9-1.588a0.287,0.287,0,0,1,.312.279,0.277,0.277,0,0,1-.306.326,0.267,0.267,0,0,1-.285-0.3A0.29,0.29,0,0,1,247.158,87.108Zm4.709-2.037a0.293,0.293,0,0,1-.31.312,0.279,0.279,0,0,1-.313-0.278A0.312,0.312,0,0,1,251.867,85.071ZM206.238,73.855a0.3,0.3,0,1,1,.393-0.278C206.622,73.755,206.515,73.867,206.238,73.855ZM210.8,97.613a0.306,0.306,0,0,1-.3.3,0.294,0.294,0,0,1-.323-0.322,0.286,0.286,0,0,1,.294-0.3A0.308,0.308,0,0,1,210.8,97.613Zm-3.946-6.481a0.274,0.274,0,0,1-.281.315,0.269,0.269,0,0,1-.314-0.273,0.261,0.261,0,0,1,.277-0.306A0.277,0.277,0,0,1,206.854,91.132Zm6.673,14.178c-0.014-.292.1-0.415,0.258-0.427a0.283,0.283,0,0,1,.312.324,0.265,0.265,0,0,1-.288.292A0.253,0.253,0,0,1,213.527,105.31Zm-8.583-10.535a0.29,0.29,0,0,1,.321.294,0.3,0.3,0,1,1-.592.006A0.3,0.3,0,0,1,204.944,94.775Zm42.766,3.28a0.283,0.283,0,0,1-.342-0.3,0.269,0.269,0,0,1,.28-0.307,0.278,0.278,0,0,1,.312.326A0.255,0.255,0,0,1,247.71,98.054Zm5.756-5.251a0.285,0.285,0,0,1,.351.275,0.3,0.3,0,1,1-.592.018A0.255,0.255,0,0,1,253.466,92.8ZM276.8,67.129v6.835h-7.806l0.653,0.629H276.8v7.463c-2.036.917-3.133,1.467-4.308,1.964a27.37,27.37,0,0,1-3.785,1.414l1.619,2.3a0.527,0.527,0,0,0,.365.209c0.313,0,.313-0.419.261-0.864a29.107,29.107,0,0,1,3.081-2.252c0.861-.655,1.723-1.283,2.767-2.016v7.751a0.564,0.564,0,0,0,.574.576,1.313,1.313,0,0,0,1.436-1.152V68.412a1.611,1.611,0,0,0,.835-0.707,0.393,0.393,0,0,0-.339-0.288Zm5.586,0v19.9c0,2.3.757,3.011,3.054,3.011h3.942a7.569,7.569,0,0,0,3.185-.55,0.926,0.926,0,0,0,0-1.7c-0.47-.288-0.522-0.733-0.47-1.755,0.052-.812.026-2.043,0-2.619H291.81c-0.026,1.074-.574,3.666-1.253,4.4a2.174,2.174,0,0,1-1.436.576h-2.715c-1.566,0-2.01-.445-2.01-1.6V75.011a25.556,25.556,0,0,0,6.944-1.6c0.705,0.236,1.41.34,1.41-.026a2.118,2.118,0,0,0-.392-0.5l-1.749-1.7a20.845,20.845,0,0,1-6.213,3.4V68.307a1.032,1.032,0,0,0,.757-0.576,0.419,0.419,0,0,0-.444-0.419Zm26.26,17.022V79.62h5.586v0.786c0,0.236.157,0.367,0.574,0.367,0.627,0,1.462-.341,1.462-0.917v-9.4a1.312,1.312,0,0,0,.679-0.707,0.639,0.639,0,0,0-.235-0.367l-1.175-1.152a0.663,0.663,0,0,0-.287-0.209,0.371,0.371,0,0,0-.235.209l-0.783.969H301.415l-2.324-1.2v12.6c0,0.288.183,0.393,0.522,0.393,0.627,0,1.54-.314,1.54-0.838V79.62h5.456v4.53h-9.136l0.5,0.629h8.64v4.5H295.358l0.47,0.628H319.4a0.255,0.255,0,0,0,.261-0.288,0.638,0.638,0,0,0-.261-0.367l-1.645-1.336a0.962,0.962,0,0,0-.365-0.236,0.6,0.6,0,0,0-.287.236l-1.123,1.362h-7.335v-4.5h8.8a0.282,0.282,0,0,0,.287-0.314,0.51,0.51,0,0,0-.209-0.34l-1.409-1.336a0.8,0.8,0,0,0-.34-0.209,0.45,0.45,0,0,0-.235.209l-1.1,1.362h-5.795Zm-2.037-9.506v4.347h-5.456V74.644h5.456Zm7.623,0v4.347h-5.586V74.644h5.586Zm0-4.818v4.19h-5.586v-4.19h5.586Zm-7.623,4.19h-5.456v-4.19h5.456v4.19Zm15.87,2.671h10.546c-0.469,3.745-1.383,10.579-10.755,14.167l0.157,0.34c4.751-1.571,11.121-3.561,12.4-13.408h0.052c0.157,0.89,1.775,8.458,8.327,12.544,0.418-.759,1.306-1.336,3.107-1.257V88.838c-4.2-1.362-8.954-6.233-10.964-12.151h10.468a0.374,0.374,0,0,0,.444-0.341,0.536,0.536,0,0,0-.209-0.393l-1.619-1.283a0.964,0.964,0,0,0-.6-0.314,0.671,0.671,0,0,0-.522.288l-1.2,1.414h-7.022c0.235-2.226.287-5.368,0.313-7.7a1.586,1.586,0,0,0,.757-0.759c0-.21-0.13-0.236-0.313-0.262l-2.663-.183a48.112,48.112,0,0,1-.1,8.9H322.009Zm30.985,0.288,0.5,0.629h10.676a30.967,30.967,0,0,1-2.61,3.064l-2.062-.288v1.99H348.9L349.339,83h10.625v5.316c0,0.6-.209.759-1.1,0.707-1.1-.052-2.245-0.131-3.315-0.236v0.288c3.367,0.969,3.367.969,3.524,1.938,2.95,0.262,2.95-1.257,2.95-2.121V82.946h10.207a0.3,0.3,0,0,0,.339-0.288,0.933,0.933,0,0,0-.261-0.55L370.928,80.8a1.152,1.152,0,0,0-.47-0.288,0.772,0.772,0,0,0-.392.419l-0.94,1.388h-7.1v-0.55a1.274,1.274,0,0,0,.757-0.76,0.216,0.216,0,0,0-.131-0.209c2.089-1.336,2.089-1.336,3.525-2.383C367.8,78.179,368,77.944,368,77.682a1.122,1.122,0,0,0-.418-0.629l-1.07-1.021a1.042,1.042,0,0,0-.574-0.34,0.959,0.959,0,0,0-.34.314l-0.966.969H353.464ZM351.61,71.24a5.649,5.649,0,0,1-1.279,3.614c-0.6.681-1.2,1.021-1.2,1.571a0.915,0.915,0,0,0,.914.943c1.148,0,2.036-1.728,2.323-3.588h16.916a14.019,14.019,0,0,1-1.41,2.8l0.235,0.262a14.822,14.822,0,0,0,2.689-2.095c1.384-.314,1.671-0.5,1.671-0.733a1.044,1.044,0,0,0-.47-0.6l-1.54-1.152A0.993,0.993,0,0,0,370.014,72a0.585,0.585,0,0,0-.392.314l-0.652.838h-16.6a6.2,6.2,0,0,0-.47-1.912H351.61Zm0.757-3.09A7.3,7.3,0,0,1,355,71.423a1.45,1.45,0,0,0,1.2,1.047,0.812,0.812,0,0,0,.835-0.864c0-.131-0.157-2.2-4.673-3.692V68.15Zm5.3-.864a8.676,8.676,0,0,1,2.428,4.138,1.136,1.136,0,0,0,1.044.916A0.875,0.875,0,0,0,362,71.5c0-1.2-1.488-3.43-4.1-4.452Zm8.119,0.236a13.965,13.965,0,0,1-2.219,4.975l0.339,0.236a39.041,39.041,0,0,0,3.5-3.588c0.678-.052,1.018-0.1,1.018-0.419a0.751,0.751,0,0,0-.627-0.5Zm17.514-.393v6.835h-7.8l0.653,0.629H383.3v7.463c-2.036.917-3.132,1.467-4.307,1.964a27.37,27.37,0,0,1-3.785,1.414l1.618,2.3a0.529,0.529,0,0,0,.366.209c0.313,0,.313-0.419.261-0.864a29.1,29.1,0,0,1,3.08-2.252c0.862-.655,1.723-1.283,2.767-2.016v7.751a0.564,0.564,0,0,0,.575.576,1.312,1.312,0,0,0,1.435-1.152V68.412a1.613,1.613,0,0,0,.836-0.707,0.393,0.393,0,0,0-.34-0.288Zm5.587,0v19.9c0,2.3.757,3.011,3.054,3.011h3.942a7.569,7.569,0,0,0,3.185-.55,0.927,0.927,0,0,0,0-1.7c-0.47-.288-0.522-0.733-0.47-1.755,0.052-.812.026-2.043,0-2.619H398.31c-0.027,1.074-.575,3.666-1.253,4.4a2.176,2.176,0,0,1-1.436.576h-2.715c-1.566,0-2.01-.445-2.01-1.6V75.011a25.573,25.573,0,0,0,6.944-1.6c0.705,0.236,1.409.34,1.409-.026a2.1,2.1,0,0,0-.391-0.5l-1.749-1.7a20.857,20.857,0,0,1-6.213,3.4V68.307a1.032,1.032,0,0,0,.757-0.576,0.42,0.42,0,0,0-.444-0.419ZM415.145,84.15V79.62h5.587v0.786c0,0.236.156,0.367,0.574,0.367,0.626,0,1.462-.341,1.462-0.917v-9.4a1.317,1.317,0,0,0,.679-0.707,0.639,0.639,0,0,0-.235-0.367l-1.175-1.152a0.675,0.675,0,0,0-.287-0.209,0.369,0.369,0,0,0-.235.209l-0.783.969H407.914l-2.323-1.2v12.6c0,0.288.183,0.393,0.522,0.393,0.626,0,1.54-.314,1.54-0.838V79.62h5.456v4.53h-9.137l0.5,0.629h8.641v4.5H401.858l0.47,0.628H425.9a0.255,0.255,0,0,0,.261-0.288,0.634,0.634,0,0,0-.261-0.367l-1.644-1.336a0.965,0.965,0,0,0-.366-0.236,0.608,0.608,0,0,0-.287.236l-1.122,1.362h-7.336v-4.5h8.8a0.282,0.282,0,0,0,.287-0.314,0.514,0.514,0,0,0-.209-0.34l-1.41-1.336a0.8,0.8,0,0,0-.339-0.209,0.443,0.443,0,0,0-.235.209l-1.1,1.362h-5.8Zm-2.036-9.506v4.347h-5.456V74.644h5.456Zm7.623,0v4.347h-5.587V74.644h5.587Zm0-4.818v4.19h-5.587v-4.19h5.587Zm-7.623,4.19h-5.456v-4.19h5.456v4.19Zm16.34-4.583h2.819a24.34,24.34,0,0,1-4.229,12.308l0.287,0.131a14.135,14.135,0,0,0,2.532-3.352h0.052V89.073c0,0.341.157,0.471,0.575,0.471a1.3,1.3,0,0,0,1.462-.969V85.224h2.845v1.362c0,0.419.131,0.576,0.5,0.576a1.324,1.324,0,0,0,1.436-1.152V77.237a0.885,0.885,0,0,0,.5-0.55,0.632,0.632,0,0,0-.209-0.393l-0.861-.943a1.027,1.027,0,0,0-.575-0.34,0.681,0.681,0,0,0-.548.367l-0.522.759h-2.558l-0.366-.314a24.9,24.9,0,0,0,1.958-6.39h3.681a0.3,0.3,0,0,0,.313-0.341,0.591,0.591,0,0,0-.183-0.393l-0.783-.864a0.921,0.921,0,0,0-.626-0.341,0.673,0.673,0,0,0-.522.314l-0.627,1h-6.735Zm3.5,7.332h2.845V84.6h-2.845v-7.83Zm6.134,0.6h2.767v3.981a12.251,12.251,0,0,1-4.568,9.375l0.131,0.314a12.49,12.49,0,0,0,4.933-4.818,12.625,12.625,0,0,0,1.541-5.892V77.368h3.08V90.54c0,0.262.13,0.471,0.6,0.471a1.263,1.263,0,0,0,1.358-1.074V77.368h3.6a0.238,0.238,0,0,0,.235-0.288,0.745,0.745,0,0,0-.235-0.445l-0.809-1a0.961,0.961,0,0,0-.653-0.419,0.822,0.822,0,0,0-.6.471l-0.627,1.047h-0.913V69.433h2.95a0.278,0.278,0,0,0,.313-0.262A0.715,0.715,0,0,0,451.9,68.7l-0.94-.943a0.9,0.9,0,0,0-.653-0.419,0.856,0.856,0,0,0-.626.419L448.923,68.8H439.4l0.339,0.629h2.114v7.306h-3.106Zm4.8-7.935h3.08v7.306h-3.08V69.433Zm22.552-1.964v3.378H458.4a4.939,4.939,0,0,0-.261-1.44h-0.209c0.209,3.038-2.637,3.771-2.637,4.9a0.918,0.918,0,0,0,1.018.89c1.41,0,2.141-2.226,2.115-3.719H468.4v3.8c0,1.859.835,2.566,2.9,2.566h4.15c2.089,0,2.872-.707,2.872-1.309a0.83,0.83,0,0,0-.34-0.6,1.487,1.487,0,0,1-.365-1.126,15.121,15.121,0,0,1,.183-2.278h-0.209a8.268,8.268,0,0,1-1.018,2.593,1.782,1.782,0,0,1-1.593,1.047h-2.61c-1.723,0-2.036-.157-2.036-1.65V71.476h5.847a16.865,16.865,0,0,1-1.8,3.116V74.67a19.337,19.337,0,0,0,3.42-2.357c1.357-.288,1.462-0.471,1.462-0.629a0.677,0.677,0,0,0-.261-0.445l-1.515-1.309a1.156,1.156,0,0,0-.522-0.314,0.54,0.54,0,0,0-.365.262l-0.783.969H468.4V68.49c0.679-.445.679-0.445,0.679-0.629,0-.21-0.105-0.262-0.418-0.262ZM465.054,76.9a19.334,19.334,0,0,1-.1,4.9l-6.813.445,0.5,0.6,6.161-.419c-0.992,3.98-3.76,7.1-9.268,8.93v0.183c4.725-.759,10.051-3.431,11.382-9.244l4.438-.314c-0.078,1.807-.418,4.111-0.418,5.971a2.434,2.434,0,0,0,2.767,2.619h2.559c1.7,0,2.741-.419,2.741-1.362a0.84,0.84,0,0,0-.444-0.733c-0.313-.236-0.5-0.393-0.5-2.121,0-.786.052-2.54,0.052-3.509h-0.313a15.327,15.327,0,0,1-1.1,4.53c-0.287.629-.835,1.414-2.584,1.414a0.931,0.931,0,0,1-1.175-1c0-1.65.235-3.3,0.366-4.949,0.783-.55.887-0.707,0.887-0.838a0.78,0.78,0,0,0-.261-0.445l-1.279-1.2a1.032,1.032,0,0,0-.365-0.236,0.509,0.509,0,0,0-.366.236L470.927,81.4l-3.916.262a33.9,33.9,0,0,0,.209-3.509c0.757-.34.862-0.471,0.862-0.655a0.518,0.518,0,0,0-.6-0.393ZM463.226,71.5c-0.47,3.3-3.889,7.07-7.7,8.118v0.21a12.417,12.417,0,0,0,9.529-6.521c0.809-.157.965-0.183,0.965-0.393a0.54,0.54,0,0,0-.391-0.393Zm21.013,1.231V83.286a15.055,15.055,0,0,1-2.637,7.778l0.209,0.262c3.681-3.3,4.229-7.044,4.438-10.553h3.863v1.414a0.427,0.427,0,0,0,.47.471,1.3,1.3,0,0,0,1.436-1.1V75.3a2.106,2.106,0,0,0,.835-0.89,0.484,0.484,0,0,0-.235-0.34L491.5,72.994a0.889,0.889,0,0,0-.47-0.262,0.775,0.775,0,0,0-.548.314l-0.549.733H486.51Zm2.01,1.676h3.915v5.735h-3.915V74.409Zm15.036-7.2a24.717,24.717,0,0,1-5.064,3.195l-1.8-.576v8.3c0,3.09-.339,8.563-4.307,11.758l0.157,0.236c3.315-2.174,5.821-5,5.952-13.408h3.08v14.01a0.45,0.45,0,0,0,.548.5,1.2,1.2,0,0,0,1.436-1.021V76.713h4.2a0.345,0.345,0,0,0,.418-0.314,0.666,0.666,0,0,0-.261-0.445l-1.123-1.047a0.809,0.809,0,0,0-.626-0.34,0.64,0.64,0,0,0-.549.34l-0.913,1.178h-6.213V70.952a27.565,27.565,0,0,0,6.108-1.886c1.253,0.288,1.514.236,1.514-.1a0.724,0.724,0,0,0-.47-0.55ZM483.3,70.062h9.163a0.328,0.328,0,0,0,.391-0.34,0.561,0.561,0,0,0-.261-0.419l-0.94-.733a1.139,1.139,0,0,0-.7-0.34,0.658,0.658,0,0,0-.5.367l-0.653.838h-6.97Zm40.93,8.9a34.82,34.82,0,0,0,.287-4.033H531.3a0.255,0.255,0,0,0,.261-0.288,0.468,0.468,0,0,0-.157-0.34l-1.357-1.2a0.8,0.8,0,0,0-.34-0.209,0.371,0.371,0,0,0-.235.209l-0.966,1.2H515.8l0.366,0.628h6.369a20.746,20.746,0,0,1-.052,4.033h-4.307l-2.611-1.257V90.252a0.432,0.432,0,0,0,.5.524,1.37,1.37,0,0,0,1.436-1.1V79.594h4.882a11.419,11.419,0,0,1-4.49,7.254v0.183c2.506-1.283,4.907-3.3,5.847-6.023a8.883,8.883,0,0,1,2.4,3.273c0.522,1.126.757,1.99,1.357,1.99a0.943,0.943,0,0,0,.888-1.1c0-1.99-2.924-3.719-4.464-4.5,0.078-.367.157-0.707,0.209-1.074h5.169v8.144c0,0.943,0,1.2-1.019,1.2a37.019,37.019,0,0,1-3.759-.314v0.209a15.776,15.776,0,0,1,3,.786,1.471,1.471,0,0,1,.6,1.545c2.61-.157,3.08-1.1,3.08-3.509V80.274c0.862-.759.966-0.89,0.966-1.021a0.423,0.423,0,0,0-.261-0.314l-1.331-1.021a0.829,0.829,0,0,0-.314-0.209,0.466,0.466,0,0,0-.235.209l-1.018,1.047h-4.777Zm-1.958-8.223V68.412a1.3,1.3,0,0,0,.81-0.655c0-.288-0.444-0.262-0.627-0.288l-2.088-.262v3.535H515.04l-2.427-1.021a91.784,91.784,0,0,1,0,9.4c-0.731,1.231-2.35,1.912-3.916,2.645l1.07,1.755a0.743,0.743,0,0,0,.444.445c0.313,0,.418-0.262.313-1.178l2.01-3.116,0.052,0.052c-0.339,3.954-1.044,8.223-4.02,11.1l0.105,0.21c5.195-3.614,6-9.794,6-15.45V71.371h17.386a0.262,0.262,0,0,0,.287-0.288,0.412,0.412,0,0,0-.131-0.34L530.6,69.407a0.924,0.924,0,0,0-.34-0.21,0.466,0.466,0,0,0-.235.21l-1.1,1.335h-6.657Zm-14.253,1.021c1.514,1.047,1.8,2.985,2.4,4.609a1.085,1.085,0,0,0,.939.655,0.923,0.923,0,0,0,.731-1.047c0-1.624-2.48-3.849-3.889-4.373Zm27.721-4.295V90.645a0.555,0.555,0,0,0,.575.524,1.629,1.629,0,0,0,1.331-1.335v-7.1c1.958,0.052,1.88,1.414,1.854,1.885,2.062-.157,3.028-1.833,3.028-3.98a6.315,6.315,0,0,0-3.916-5.944,18.84,18.84,0,0,0,3.837-5.185c0.679-.262.862-0.34,0.862-0.55a0.672,0.672,0,0,0-.287-0.5l-0.94-.759a1.065,1.065,0,0,0-.47-0.236,0.482,0.482,0,0,0-.444.236l-0.7.917h-2.4Zm4.725,1.781a14.062,14.062,0,0,1-2.323,5.525c1.54,1.336,2.95,2.593,2.95,4.871,0,1.414-.47,2.881-2.01,2.881a8.191,8.191,0,0,1-1.384-.21V69.25h2.767ZM543.6,79.934h4.072c0.026,6.18-3.106,9.113-7.2,11.13v0.209c3.394-1,8.693-2.8,9.215-11.339h1.462v8.327c0,1.414,1.567,2.121,3.655,2.121,1.514,0,4.2-.026,4.2-1.231,0-.707-0.809-0.5-0.809-1.807,0-1.152.078-2.959,0.13-3.8l-0.261.026c-0.6,3.823-.809,5.028-2.323,5.028h-1.514a1.062,1.062,0,0,1-1.2-1.047v-7.62h5.612a0.388,0.388,0,0,0,.366-0.34,0.529,0.529,0,0,0-.157-0.367l-1.383-1.257a0.617,0.617,0,0,0-.392-0.183,0.43,0.43,0,0,0-.313.288l-1.018,1.231H543.179Zm1.175-10.239c0.261,1.65-1.984,2.095-1.984,3.247,0,0.393.209,0.629,0.809,0.629,1.41,0,1.7-1.676,1.749-2.383h10.52a9.749,9.749,0,0,1-.992,2.619l0.157,0.052a16.184,16.184,0,0,0,2.454-1.912c0.835-.052,1.462.026,1.462-0.55a0.789,0.789,0,0,0-.392-0.629l-1.331-1.074a0.843,0.843,0,0,0-.575-0.262,0.554,0.554,0,0,0-.417.183l-0.966.943h-3.472V68.124a1.046,1.046,0,0,0,.757-0.759,0.457,0.457,0,0,0-.392-0.157L549.836,67v3.561H545.32a3.75,3.75,0,0,0-.392-0.969Zm0.992,6.364h10.363a0.31,0.31,0,0,0,.314-0.34,1.053,1.053,0,0,0-.366-0.524l-1.149-1a0.712,0.712,0,0,0-.5-0.262,0.7,0.7,0,0,0-.391.367l-0.992,1.126h-7.753ZM276.136,105v-0.393h-0.415a1.364,1.364,0,0,1-1.284-.773l-2.666-4.576,1.736-1.84a2.2,2.2,0,0,1,1.81-.969h0.538v-0.4h-3.522v0.4h0.526c0.318,0,.477.123,0.477,0.356a0.586,0.586,0,0,1-.232.466l-3.523,3.741V97.3a0.717,0.717,0,0,1,.869-0.847h0.391v-0.4H267v0.4h0.281a0.736,0.736,0,0,1,.881.847v6.466a0.741,0.741,0,0,1-.881.846H267V105h3.84v-0.393H270.45a0.733,0.733,0,0,1-.869-0.846v-2.172l1.15-1.227,1.969,3.362a1,1,0,0,1,.135.454,0.506,0.506,0,0,1-.575.429h-0.282V105h4.158Zm0.666,0h3.363v-0.393h-0.391a0.575,0.575,0,0,1-.661-0.662V98.966l-2.213.5,0.073,0.307A1.356,1.356,0,0,1,277.4,99.7a0.5,0.5,0,0,1,.452.613v3.632a0.6,0.6,0,0,1-.611.662H276.8V105Zm1.675-9.177a0.871,0.871,0,1,0,.868.871A0.872,0.872,0,0,0,278.477,95.825Zm3.194,3.779v4.085a1.348,1.348,0,0,0,1.382,1.546,2.344,2.344,0,0,0,1.712-.933l-0.257-.282a1.411,1.411,0,0,1-.893.515,0.7,0.7,0,0,1-.684-0.846V99.6h1.687V99.2h-1.687V97.175h-0.38v0.478a1.768,1.768,0,0,1-1.846,1.546v0.4h0.966Zm9.321,4.809-0.147-.1a0.677,0.677,0,0,1-.477.22c-0.428,0-.477-0.441-0.477-0.858v-3.215a2.26,2.26,0,0,0-.171-0.944,2.6,2.6,0,0,0-1.773-.552,3.139,3.139,0,0,0-2.006.589,1.013,1.013,0,0,0-.318.687,0.726,0.726,0,0,0,.771.711,0.806,0.806,0,0,0,.782-0.944,0.667,0.667,0,0,1,.734-0.712,0.658,0.658,0,0,1,.722.748v1.546a5.13,5.13,0,0,0-2.789,1.386,1.45,1.45,0,0,0-.415.982,1.319,1.319,0,0,0,1.492,1.276,2.762,2.762,0,0,0,1.761-.651,1.117,1.117,0,0,0,1.027.651A1.484,1.484,0,0,0,290.992,104.413Zm-2.36-.123a1.389,1.389,0,0,1-.856.294,0.814,0.814,0,0,1-.93-0.772c0-1.141,1.333-1.693,1.786-1.877v2.355Zm7.414-.9c0-.871-0.453-1.349-1.9-2.061-1.259-.613-1.406-0.858-1.406-1.226a0.707,0.707,0,0,1,.844-0.712,2.277,2.277,0,0,1,2.018,1.583l0.354-.123-0.526-1.889a1.207,1.207,0,0,1-.733.233,1.5,1.5,0,0,1-.538-0.1,2.383,2.383,0,0,0-.722-0.135,1.605,1.605,0,0,0-1.663,1.644c0,0.871.6,1.4,1.724,1.95,1.431,0.712,1.566.908,1.566,1.325a0.89,0.89,0,0,1-.979.822,2.524,2.524,0,0,1-1.712-.748,2.655,2.655,0,0,1-.538-0.847l-0.453.172,0.636,1.951a1.726,1.726,0,0,1,.746-0.246c0.062,0,.6.123,0.685,0.148a2.923,2.923,0,0,0,.71.1A1.81,1.81,0,0,0,296.046,103.394Zm6.5,1.019-0.146-.1a0.679,0.679,0,0,1-.477.22c-0.428,0-.477-0.441-0.477-0.858v-3.215a2.248,2.248,0,0,0-.172-0.944,2.6,2.6,0,0,0-1.773-.552,3.135,3.135,0,0,0-2,.589,1.009,1.009,0,0,0-.318.687,0.726,0.726,0,0,0,.77.711,0.808,0.808,0,0,0,.783-0.944,0.666,0.666,0,0,1,.733-0.712,0.658,0.658,0,0,1,.722.748v1.546a5.124,5.124,0,0,0-2.788,1.386,1.447,1.447,0,0,0-.416.982,1.319,1.319,0,0,0,1.492,1.276,2.757,2.757,0,0,0,1.761-.651,1.117,1.117,0,0,0,1.027.651A1.483,1.483,0,0,0,302.542,104.413Zm-2.36-.123a1.387,1.387,0,0,1-.856.294,0.813,0.813,0,0,1-.929-0.772c0-1.141,1.333-1.693,1.785-1.877v2.355Zm3.684-4.686v4.085a1.349,1.349,0,0,0,1.382,1.546,2.344,2.344,0,0,0,1.712-.933l-0.257-.282a1.412,1.412,0,0,1-.892.515,0.7,0.7,0,0,1-.685-0.846V99.6h1.688V99.2h-1.688V97.175h-0.379v0.478A1.769,1.769,0,0,1,302.9,99.2v0.4h0.966Zm9.028,2.5a2.732,2.732,0,1,0-2.7,3.129A2.982,2.982,0,0,0,312.894,102.106Zm-1.419-.171c0,2.4-.4,2.968-1.272,2.968-0.587,0-1.3-.122-1.3-2.637,0-2.466.416-2.969,1.284-2.969C310.8,99.3,311.475,99.493,311.475,101.935Zm14.791-5.889h-2.874v0.4h0.281a0.862,0.862,0,0,1,.9,1.006v4.87a2.175,2.175,0,0,1-2.054,2.405c-1.175,0-2.141-.9-2.141-2.761V97.3a0.725,0.725,0,0,1,.881-0.847h0.416v-0.4h-4.012v0.4h0.416a0.737,0.737,0,0,1,.881.847v4.846A2.8,2.8,0,0,0,322,105.235a2.742,2.742,0,0,0,2.984-2.969V97.457a0.814,0.814,0,0,1,.868-1.006h0.416v-0.4ZM326.955,105h2.874v-0.393a0.654,0.654,0,0,1-.832-0.65v-3.435a1.89,1.89,0,0,1,1.272-.8,0.921,0.921,0,0,1,.893,1.055V105h2.128v-0.393H333a0.552,0.552,0,0,1-.551-0.638v-3.214a1.6,1.6,0,0,0-1.492-1.791A2.724,2.724,0,0,0,329,100.033V98.966l-2.152.4,0.061,0.307a2.268,2.268,0,0,1,.416-0.049,0.418,0.418,0,0,1,.4.454v3.877c0,0.65-.318.65-0.771,0.65V105Zm6.925,0h3.364v-0.393h-0.392a0.575,0.575,0,0,1-.66-0.662V98.966l-2.214.5,0.074,0.307a1.356,1.356,0,0,1,.428-0.074,0.5,0.5,0,0,1,.452.613v3.632a0.6,0.6,0,0,1-.611.662H333.88V105Zm1.676-9.177a0.871,0.871,0,1,0,.868.871A0.872,0.872,0,0,0,335.556,95.825ZM344.18,99.6V99.2h-2.165v0.4h0.416c0.4,0,.416.172,0.416,0.307a1.016,1.016,0,0,1-.049.307l-1.285,3.227-1.381-3.08a1.043,1.043,0,0,1-.123-0.417A0.342,0.342,0,0,1,340.4,99.6H340.6V99.2H337.82v0.4c0.318,0,.563,0,0.905.76l2.177,4.871h0.342l1.969-5.018a0.837,0.837,0,0,1,.722-0.613h0.245Zm6.044,4.024-0.293-.234a2.637,2.637,0,0,1-1.822,1.215c-0.844,0-1.859-.773-1.786-2.834h3.706a3.342,3.342,0,0,0-.893-2.171,2.005,2.005,0,0,0-1.455-.638,3.05,3.05,0,0,0-2.691,3.263,2.8,2.8,0,0,0,2.752,3.006A2.935,2.935,0,0,0,350.224,103.628Zm-1.516-2.245h-2.36c0.061-.577.22-2.012,1.333-2.012C348.659,99.371,348.7,100.671,348.708,101.383Zm4.662-2.417-2.384.6,0.1,0.245a1.718,1.718,0,0,1,.477-0.061c0.294,0,.514.074,0.514,0.65v3.362a0.736,0.736,0,0,1-.868.846h-0.233V105h3.6v-0.393h-0.33a0.737,0.737,0,0,1-.869-0.846v-2.442c0.1-.294.563-1.57,1.248-1.57,0.183,0,.208.086,0.22,0.294a0.76,0.76,0,0,0,.832.736,0.843,0.843,0,0,0,.868-0.907,0.927,0.927,0,0,0-1.113-.908,2.419,2.419,0,0,0-2.055,1.177V98.966Zm8.369,4.428c0-.871-0.453-1.349-1.9-2.061-1.26-.613-1.406-0.858-1.406-1.226a0.707,0.707,0,0,1,.843-0.712,2.276,2.276,0,0,1,2.018,1.583l0.355-.123-0.526-1.889a1.21,1.21,0,0,1-.734.233,1.5,1.5,0,0,1-.538-0.1,2.373,2.373,0,0,0-.721-0.135,1.606,1.606,0,0,0-1.664,1.644c0,0.871.6,1.4,1.725,1.95,1.431,0.712,1.565.908,1.565,1.325a0.889,0.889,0,0,1-.978.822,2.524,2.524,0,0,1-1.712-.748,2.638,2.638,0,0,1-.538-0.847l-0.453.172,0.636,1.951a1.726,1.726,0,0,1,.746-0.246c0.061,0,.6.123,0.685,0.148a2.915,2.915,0,0,0,.709.1A1.811,1.811,0,0,0,361.739,103.394ZM362.426,105h3.363v-0.393H365.4a0.575,0.575,0,0,1-.661-0.662V98.966l-2.213.5,0.073,0.307a1.356,1.356,0,0,1,.428-0.074,0.5,0.5,0,0,1,.453.613v3.632a0.6,0.6,0,0,1-.612.662h-0.44V105Zm1.675-9.177a0.871,0.871,0,1,0,.869.871A0.873,0.873,0,0,0,364.1,95.825ZM367.3,99.6v4.085a1.348,1.348,0,0,0,1.382,1.546,2.344,2.344,0,0,0,1.712-.933l-0.257-.282a1.412,1.412,0,0,1-.892.515,0.7,0.7,0,0,1-.685-0.846V99.6h1.687V99.2h-1.687V97.175h-0.379v0.478a1.769,1.769,0,0,1-1.847,1.546v0.4H367.3Zm9.945,0V99.2h-2.422v0.4h0.441a0.469,0.469,0,0,1,.5.441,1.323,1.323,0,0,1-.1.5l-1.088,2.7-1.2-2.76a1.454,1.454,0,0,1-.11-0.478,0.34,0.34,0,0,1,.4-0.405h0.306V99.2h-3.07v0.4h0.2a0.964,0.964,0,0,1,.868.809l1.957,4.478-0.086.2a1.641,1.641,0,0,1-.856.994,0.252,0.252,0,0,1-.22-0.184,0.76,0.76,0,0,0-.758-0.626,0.815,0.815,0,0,0-.832.847,0.906,0.906,0,0,0,.966.883,2.34,2.34,0,0,0,2.006-1.619l1.944-4.834a1.158,1.158,0,0,1,.954-0.944h0.2Zm13.971,5.4v-0.393H390.8a1.367,1.367,0,0,1-1.285-.773l-2.666-4.576,1.737-1.84a2.2,2.2,0,0,1,1.81-.969h0.538v-0.4h-3.522v0.4h0.526c0.318,0,.477.123,0.477,0.356a0.584,0.584,0,0,1-.233.466l-3.522,3.741V97.3a0.717,0.717,0,0,1,.869-0.847h0.391v-0.4h-3.84v0.4h0.281a0.736,0.736,0,0,1,.881.847v6.466a0.741,0.741,0,0,1-.881.846h-0.281V105h3.84v-0.393h-0.391a0.732,0.732,0,0,1-.869-0.846v-2.172l1.15-1.227,1.969,3.362a1,1,0,0,1,.134.454,0.5,0.5,0,0,1-.574.429h-0.282V105h4.158Zm0.666,0h3.363v-0.393h-0.392a0.575,0.575,0,0,1-.66-0.662V98.966l-2.214.5,0.074,0.307a1.356,1.356,0,0,1,.428-0.074,0.5,0.5,0,0,1,.452.613v3.632a0.6,0.6,0,0,1-.611.662h-0.44V105Zm1.675-9.177a0.871,0.871,0,1,0,.868.871A0.872,0.872,0,0,0,393.552,95.825Zm3.194,3.779v4.085a1.348,1.348,0,0,0,1.382,1.546,2.344,2.344,0,0,0,1.712-.933l-0.257-.282a1.414,1.414,0,0,1-.893.515,0.7,0.7,0,0,1-.685-0.846V99.6h1.688V99.2h-1.688V97.175h-0.379v0.478A1.768,1.768,0,0,1,395.78,99.2v0.4h0.966Zm9.321,4.809-0.147-.1a0.677,0.677,0,0,1-.477.22c-0.428,0-.477-0.441-0.477-0.858v-3.215a2.26,2.26,0,0,0-.171-0.944,2.6,2.6,0,0,0-1.773-.552,3.139,3.139,0,0,0-2.006.589,1.013,1.013,0,0,0-.318.687,0.726,0.726,0,0,0,.771.711,0.806,0.806,0,0,0,.782-0.944,0.667,0.667,0,0,1,.734-0.712,0.658,0.658,0,0,1,.722.748v1.546a5.13,5.13,0,0,0-2.789,1.386,1.452,1.452,0,0,0-.416.982,1.32,1.32,0,0,0,1.492,1.276,2.763,2.763,0,0,0,1.762-.651,1.117,1.117,0,0,0,1.027.651A1.485,1.485,0,0,0,406.067,104.413Zm-2.36-.123a1.389,1.389,0,0,1-.856.294,0.813,0.813,0,0,1-.93-0.772c0-1.141,1.333-1.693,1.786-1.877v2.355Zm7.414-.9c0-.871-0.453-1.349-1.9-2.061-1.259-.613-1.406-0.858-1.406-1.226a0.707,0.707,0,0,1,.844-0.712,2.278,2.278,0,0,1,2.018,1.583l0.354-.123-0.526-1.889a1.207,1.207,0,0,1-.733.233,1.5,1.5,0,0,1-.539-0.1,2.373,2.373,0,0,0-.721-0.135,1.605,1.605,0,0,0-1.663,1.644c0,0.871.6,1.4,1.724,1.95,1.431,0.712,1.565.908,1.565,1.325a0.889,0.889,0,0,1-.978.822,2.524,2.524,0,0,1-1.712-.748,2.655,2.655,0,0,1-.538-0.847l-0.453.172,0.636,1.951a1.726,1.726,0,0,1,.746-0.246c0.061,0,.6.123,0.685,0.148a2.921,2.921,0,0,0,.709.1A1.811,1.811,0,0,0,411.121,103.394Zm6.5,1.019-0.147-.1a0.674,0.674,0,0,1-.476.22c-0.428,0-.477-0.441-0.477-0.858v-3.215a2.248,2.248,0,0,0-.172-0.944,2.6,2.6,0,0,0-1.773-.552,3.139,3.139,0,0,0-2.006.589,1.013,1.013,0,0,0-.318.687,0.726,0.726,0,0,0,.771.711,0.808,0.808,0,0,0,.783-0.944,0.666,0.666,0,0,1,.733-0.712,0.658,0.658,0,0,1,.722.748v1.546a5.124,5.124,0,0,0-2.788,1.386,1.447,1.447,0,0,0-.416.982,1.319,1.319,0,0,0,1.492,1.276,2.757,2.757,0,0,0,1.761-.651,1.117,1.117,0,0,0,1.027.651A1.483,1.483,0,0,0,417.617,104.413Zm-2.36-.123a1.389,1.389,0,0,1-.856.294,0.814,0.814,0,0,1-.93-0.772c0-1.141,1.333-1.693,1.786-1.877v2.355Zm3.684-4.686v4.085a1.349,1.349,0,0,0,1.382,1.546,2.344,2.344,0,0,0,1.712-.933l-0.257-.282a1.412,1.412,0,0,1-.892.515,0.7,0.7,0,0,1-.685-0.846V99.6h1.687V99.2H420.2V97.175h-0.379v0.478a1.769,1.769,0,0,1-1.847,1.546v0.4h0.966Zm9.028,2.5a2.732,2.732,0,1,0-2.7,3.129A2.982,2.982,0,0,0,427.969,102.106Zm-1.419-.171c0,2.4-.4,2.968-1.272,2.968-0.587,0-1.3-.122-1.3-2.637,0-2.466.416-2.969,1.284-2.969C425.878,99.3,426.55,99.493,426.55,101.935ZM436.706,105v-0.393h-0.453a0.745,0.745,0,0,1-.88-0.846V97.3a0.726,0.726,0,0,1,.88-0.847h0.453v-0.4h-4.073v0.4h0.453a0.732,0.732,0,0,1,.868.847v6.466a0.732,0.732,0,0,1-.868.846h-0.453V105h4.073Zm0.564,0h2.874v-0.393a0.653,0.653,0,0,1-.831-0.65v-3.435a1.887,1.887,0,0,1,1.272-.8,0.92,0.92,0,0,1,.892,1.055V105h2.128v-0.393h-0.293a0.552,0.552,0,0,1-.55-0.638v-3.214a1.6,1.6,0,0,0-1.492-1.791,2.722,2.722,0,0,0-1.957,1.067V98.966l-2.153.4,0.062,0.307a2.257,2.257,0,0,1,.415-0.049,0.418,0.418,0,0,1,.4.454v3.877c0,0.65-.318.65-0.771,0.65V105Zm11.671-1.608c0-.871-0.453-1.349-1.9-2.061-1.259-.613-1.406-0.858-1.406-1.226a0.707,0.707,0,0,1,.844-0.712,2.277,2.277,0,0,1,2.018,1.583l0.354-.123-0.526-1.889a1.207,1.207,0,0,1-.733.233,1.5,1.5,0,0,1-.538-0.1,2.383,2.383,0,0,0-.722-0.135,1.605,1.605,0,0,0-1.663,1.644c0,0.871.6,1.4,1.724,1.95,1.431,0.712,1.566.908,1.566,1.325a0.89,0.89,0,0,1-.979.822,2.524,2.524,0,0,1-1.712-.748,2.655,2.655,0,0,1-.538-0.847l-0.453.172,0.636,1.951a1.726,1.726,0,0,1,.746-0.246c0.061,0,.6.123,0.685,0.148a2.923,2.923,0,0,0,.71.1A1.81,1.81,0,0,0,448.941,103.394Zm1.7-3.79v4.085a1.349,1.349,0,0,0,1.382,1.546,2.342,2.342,0,0,0,1.712-.933l-0.256-.282a1.416,1.416,0,0,1-.893.515,0.7,0.7,0,0,1-.685-0.846V99.6h1.688V99.2H451.9V97.175h-0.379v0.478a1.769,1.769,0,0,1-1.847,1.546v0.4h0.966Zm3.512,5.4h3.364v-0.393h-0.392a0.575,0.575,0,0,1-.66-0.662V98.966l-2.214.5,0.074,0.307a1.356,1.356,0,0,1,.428-0.074,0.5,0.5,0,0,1,.452.613v3.632a0.6,0.6,0,0,1-.611.662h-0.441V105Zm1.676-9.177a0.871,0.871,0,1,0,.868.871A0.872,0.872,0,0,0,455.831,95.825Zm3.194,3.779v4.085a1.348,1.348,0,0,0,1.381,1.546,2.344,2.344,0,0,0,1.713-.933l-0.257-.282a1.414,1.414,0,0,1-.893.515,0.7,0.7,0,0,1-.685-0.846V99.6h1.688V99.2h-1.688V97.175h-0.379v0.478a1.769,1.769,0,0,1-1.847,1.546v0.4h0.967Zm3.7,0.086a1.438,1.438,0,0,1,.355-0.061,0.45,0.45,0,0,1,.416.54v3.165a1.716,1.716,0,0,0,1.687,1.9,2.1,2.1,0,0,0,1.639-.933V105h2.177v-0.393h-0.367a0.533,0.533,0,0,1-.538-0.65V98.966l-2.25.454,0.1,0.282a2.384,2.384,0,0,1,.5-0.1,0.407,0.407,0,0,1,.379.49v3.632a1.35,1.35,0,0,1-1.1.65,0.978,0.978,0,0,1-.966-1.153V98.966l-2.128.442Zm7.855-.086v4.085a1.348,1.348,0,0,0,1.382,1.546,2.344,2.344,0,0,0,1.712-.933l-0.257-.282a1.411,1.411,0,0,1-.893.515,0.7,0.7,0,0,1-.684-0.846V99.6h1.687V99.2h-1.687V97.175h-0.38v0.478a1.768,1.768,0,0,1-1.846,1.546v0.4h0.966Zm8.979,4.024-0.294-.234a2.637,2.637,0,0,1-1.822,1.215c-0.844,0-1.859-.773-1.786-2.834h3.706a3.342,3.342,0,0,0-.893-2.171,2,2,0,0,0-1.455-.638,3.05,3.05,0,0,0-2.691,3.263,2.8,2.8,0,0,0,2.752,3.006A2.937,2.937,0,0,0,479.554,103.628Zm-1.517-2.245h-2.36c0.061-.577.22-2.012,1.333-2.012C477.988,99.371,478.025,100.671,478.037,101.383ZM493.586,105v-0.393h-0.4a0.728,0.728,0,0,1-.868-0.846V97.3a0.719,0.719,0,0,1,.868-0.847h0.4v-0.4h-3.975v0.4h0.4a0.74,0.74,0,0,1,.88.847v2.994h-3.754V97.3a0.719,0.719,0,0,1,.868-0.847h0.4v-0.4h-3.975v0.4h0.4a0.74,0.74,0,0,1,.88.847v6.466a0.74,0.74,0,0,1-.88.846h-0.4V105h3.975v-0.393h-0.4a0.728,0.728,0,0,1-.868-0.846V100.7H490.9v3.067a0.74,0.74,0,0,1-.88.846h-0.4V105h3.975Zm6.181-2.9a2.732,2.732,0,1,0-2.7,3.129A2.982,2.982,0,0,0,499.767,102.106Zm-1.419-.171c0,2.4-.4,2.968-1.272,2.968-0.587,0-1.3-.122-1.3-2.637,0-2.466.416-2.969,1.284-2.969C497.675,99.3,498.348,99.493,498.348,101.935Zm6.766,1.459c0-.871-0.452-1.349-1.895-2.061-1.26-.613-1.407-0.858-1.407-1.226a0.707,0.707,0,0,1,.844-0.712,2.276,2.276,0,0,1,2.018,1.583l0.354-.123L504.5,98.966a1.211,1.211,0,0,1-.734.233,1.5,1.5,0,0,1-.538-0.1,2.373,2.373,0,0,0-.722-0.135,1.605,1.605,0,0,0-1.663,1.644c0,0.871.6,1.4,1.724,1.95,1.431,0.712,1.566.908,1.566,1.325a0.89,0.89,0,0,1-.979.822,2.526,2.526,0,0,1-1.712-.748,2.655,2.655,0,0,1-.538-0.847l-0.452.172,0.636,1.951a1.721,1.721,0,0,1,.746-0.246c0.061,0,.6.123,0.684,0.148a2.923,2.923,0,0,0,.71.1A1.81,1.81,0,0,0,505.114,103.394Zm3.048-4.428-2.324.613,0.1,0.245a1.738,1.738,0,0,1,.477-0.1c0.281,0,.452.135,0.452,0.712v5.324c0,0.7-.256.847-0.929,0.847V107H509.1v-0.392c-0.733,0-.941-0.111-0.941-0.847V104.4a1.959,1.959,0,0,0,1.541.835c1.186,0,2.336-1.166,2.336-3.19,0-1.828-.954-3.079-2.275-3.079a2.08,2.08,0,0,0-1.6.834V98.966Zm0,1.631a1.476,1.476,0,0,1,1.284-1.006c0.88,0,1.211.933,1.211,2.5,0,1.9-.465,2.515-1.236,2.515a1.529,1.529,0,0,1-1.259-.871V100.6ZM512.825,105h3.363v-0.393H515.8a0.575,0.575,0,0,1-.66-0.662V98.966l-2.213.5L513,99.775a1.356,1.356,0,0,1,.428-0.074,0.5,0.5,0,0,1,.452.613v3.632a0.6,0.6,0,0,1-.611.662h-0.44V105Zm1.675-9.177a0.871,0.871,0,1,0,.868.871A0.872,0.872,0,0,0,514.5,95.825Zm3.194,3.779v4.085a1.348,1.348,0,0,0,1.382,1.546,2.344,2.344,0,0,0,1.712-.933l-0.257-.282a1.411,1.411,0,0,1-.893.515,0.7,0.7,0,0,1-.685-0.846V99.6h1.688V99.2h-1.688V97.175h-0.379v0.478a1.768,1.768,0,0,1-1.846,1.546v0.4h0.966Zm9.321,4.809-0.147-.1a0.677,0.677,0,0,1-.477.22c-0.428,0-.477-0.441-0.477-0.858v-3.215a2.26,2.26,0,0,0-.171-0.944,2.6,2.6,0,0,0-1.773-.552,3.139,3.139,0,0,0-2.006.589,1.013,1.013,0,0,0-.318.687,0.726,0.726,0,0,0,.771.711,0.806,0.806,0,0,0,.782-0.944,0.667,0.667,0,0,1,.734-0.712,0.658,0.658,0,0,1,.722.748v1.546a5.13,5.13,0,0,0-2.789,1.386,1.45,1.45,0,0,0-.415.982,1.319,1.319,0,0,0,1.492,1.276,2.762,2.762,0,0,0,1.761-.651,1.117,1.117,0,0,0,1.027.651A1.485,1.485,0,0,0,527.015,104.413Zm-2.36-.123a1.389,1.389,0,0,1-.856.294,0.813,0.813,0,0,1-.93-0.772c0-1.141,1.333-1.693,1.786-1.877v2.355Zm2.73,0.712h3.241v-0.393c-0.587,0-.991-0.049-0.991-0.846V95.825l-2.1.478,0.085,0.258A1.03,1.03,0,0,1,528,96.488a0.462,0.462,0,0,1,.38.54v6.736a0.687,0.687,0,0,1-.795.846h-0.2V105Z" transform="translate(-200 -61)"/>
</svg>
